<?xml version="1.0" encoding="UTF-8"?> <svg xmlns="http://www.w3.org/2000/svg" id="Layer_3" data-name="Layer 3" viewBox="0 0 2880 1200"><defs><style>.cls-1{fill:#7c3f2c;}.cls-2{fill:#b16549;}.cls-3{fill:#d1d3d4;}.cls-4{fill:#e48054;}.cls-5{fill:#201649;}.cls-6{fill:#ee7c95;}.cls-7{fill:#f56e5d;}.cls-8{fill:#ffc010;}.cls-9{fill:#f5a220;}.cls-10{fill:#e4e4e4;}.cls-11{fill:#65b8ef;}.cls-12{fill:#05afa5;}.cls-13{fill:none;stroke:#7c3f2c;stroke-linecap:round;stroke-miterlimit:10;stroke-width:10px;}</style></defs><polygon class="cls-1" points="2196.1 953.1 2466.4 908.3 2407.2 999.2 2160 1005.1 2196.1 953.1"></polygon><path class="cls-2" d="M2197.7,975.2l-11.7,2-101.7,18-31.4,5.6-88-17.7,85-49.1a60.9,60.9,0,0,1,26.8-2.4l119.4,21.5Z"></path><path class="cls-1" d="M2186,977.2l-101.7,18c-44.7-3.9-76.8-7.9-76.8-7.9l4.2-8.3s31.1-19,62.7-20.4C2099.8,957.6,2157.1,971.6,2186,977.2Z"></path><path class="cls-3" d="M2167.1,1000.9c0-19.7-38.9-35.7-86.8-35.7s-86.8,16-86.8,35.7"></path><path class="cls-2" d="M2455,659.7c7.4-8.5-1.2-26.1-11.7-40.3-6.5-8.9-13.7-16.3-18.1-19.4s-6.8-4.5-9.9-6.3a39.9,39.9,0,0,0-20.3-5.2l-43,.5c-71.9,0-60-49.7-73.2-79.2l-27.9-8c-14.5-4.2-13-17.2-8.7-31.6,8.1-26.5,20.9-35.4,20.9-35.4l.5-28c.3-13.6.5-22.4,2-33.6,23.9-178.4,277-158.2,273.4,16.5,2.7,38.5-18.9,69-23.2,104.7-3.7,16.9,4,30.2,15.4,41.1h0a145.6,145.6,0,0,0,21.8,16.3l22,82.8-133.9,50.5Z"></path><path class="cls-1" d="M2531.2,535.5c-1.7.2-21.3,2.3-35.1,0s-32.2-20.2-32.2-20.2l51.9-20.9C2512.1,511.3,2519.8,524.6,2531.2,535.5Z"></path><g id="Student"><path class="cls-4" d="M681.3,437.3c-5.7-8.1-23.2-21.7-29.5-26.4-2.3-41.2-9.9-82.6-15.6-109.4-5.2-24.1-27.2-33-48-42.6-35.9-16.3-81.4-18.5-126.4,10.6-71.3,45.9-75.1,116-29.7,220.2l-69,39.2,79.2,108,44.3-54.1.3-.3c8.3-10.2,19.4-23.1,30.2-34.6,1.5-1.6,4.1-2.3,7.5-2.6,15.4-1.4,47.7,7.3,79.3-1s44.6-43.4,47.7-85.9C671,458.1,688.3,447.2,681.3,437.3Z"></path><path class="cls-2" d="M497.5,474.3a27.3,27.3,0,0,0,11.6-4.3,5,5,0,0,1,7,2,5.8,5.8,0,0,1,.7,3.7c-1.6,6-7,12.6-22.4,15.7C462.7,497.8,497.5,474.3,497.5,474.3Z"></path><path class="cls-2" d="M518.2,528.5c-33.3-15.7-37.9-42.8-37.9-42.8s-23.7,23.4-35.3,38.2l-7.8,1.6c-6.3,1.7-29,26.7-31,29.1s-2,32.7,16.3,34.1,22.4-14.4,27.8-33.1a1.5,1.5,0,0,0,.1-.6c4.5-14.5,25.6-13.3,28.5,1.8,2.1,11.7,2.9,23.7,7.7,26l.3-.3c8.3-10.2,19.4-23.1,30.2-34.6,1.5-1.6,4.1-2.3,7.5-2.6h0c15.4-1.4,47.9,8.1,79.3-1C573.6,544.6,538.8,538.3,518.2,528.5Z"></path><path class="cls-4" d="M990,963.1c-4.9-1.1-14.2-7.6-16.5-9.6l-30.1-24.1a37.4,37.4,0,0,0-10.5-5.9c-12.9-4.5-44.2-14.9-54.5-14.9a29.8,29.8,0,0,0-9.7,2.3l-.2-.2L764.6,930.4l-18.3.6v69.9H975.8l-9.2-16.3c-9.1-16.4-32.6-5.8-37.3-19.7-1.2-3.8-2.3-8-3.3-11.8,11.5,7.4,36.3,22.4,49.8,24.4C993.9,980.2,994.9,964.3,990,963.1Z"></path><path class="cls-2" d="M772.6,1000.9s39.9-16.6,54.1-23.1c30.1-14,70-12.6,70-12.6s-65.7,35.7-68.3,35.7Z"></path><path class="cls-5" d="M639.9,314.5s-33.5.1-40.6,8.8-12.8,27.5-32.2,27.5c-12.9,0-23.9,18.3-22.8,44.8v1.1a25.9,25.9,0,0,1-22,25.5v-.4c.3-12.8-6.9-24.8-18.9-29.3-22.2-8.4-43.1,7.7-43.1,28.7,0,7.1,11.2,53.2,37.2,53.1,4.6,7.5,8.6,15.7,2.3,24.8a19.9,19.9,0,0,1-13.2,8.3c-28.2,6-38.2,27.4-43.4,46.5s-39.3,34.8-61.8,40.8-12.7,32.1-48.9,48-93.5,20.9-109.8.9c-30.6-37.5,2.3-74.9,26-85.4s44.4-22.2,39.9-43.6,21.4-49.4,37.1-62.8,15.4-33.6,12.8-55.1,5.7-45.4,21.5-57.6,26.1-33.2,24.5-46.5,23.9-43.5,42.4-47.4,35.7-2,59.7-2.8,25.9-20.1,59.1-15.1c21.4,3.3,33.6,12.1,39.6,17.9a30.1,30.1,0,0,0,13.8,8l14,3.7C652.4,264.8,639.9,314.5,639.9,314.5Z"></path><path class="cls-6" d="M507.7,1033.7l2.8,29H192.1V755.1c0-71.4,43.6-133.6,87.9-174.6A101,101,0,0,1,318.8,558c38.8-11.4,72.7,4.6,89,14.8a19.2,19.2,0,0,0,21.4-.5l1.4-.9c13.2,12.5,16,30.4,34.7,36.7,0,0,49.2,166.2,57,194.4,14.2,49.7-30,77.4-30,77.4l3.8,37.9Z"></path><path class="cls-7" d="M506.3,1020.5l-164.7,16.6a33.8,33.8,0,0,1-32.1-20.8c-23.4-54.8-60-203.2-60-243.7,0-50.2,35.3-102,35.3-102,26.6-29.1,45.1,8.6,59.1,45.5L415,902.9l81.1,14.9Z"></path><path class="cls-6" d="M748.5,916.3l-43.3-6.5a26.6,26.6,0,0,0-16.9,3.2h0a4,4,0,0,0-2,4v1.6L444.7,874.4,373.4,687.5c-14-36.8-62-46-88.6-16.9,0,0-29.1,26.6-29.1,76.6,0,40.5,60,185.7,83.4,240.7a34.4,34.4,0,0,0,32.2,20.7l375-7.7,9.1-73.2A10.7,10.7,0,0,0,748.5,916.3Z"></path><path class="cls-7" d="M423.5,901.5a5.3,5.3,0,0,0-.5-7.2,4.9,4.9,0,0,0-6.6,0c-14.6,11-29.9,24.1-31.4,31.4a41.6,41.6,0,0,0-.6,4.4,7.3,7.3,0,0,0,7.2,7.6,7.9,7.9,0,0,0,5.9-2.6Z"></path><path class="cls-5" d="M633.8,363.6c1.5,4-8.5,7.8-20.5,12.2s-21.4,7.3-22.8,3.3,7.1-10.6,19.1-14.9S632.4,359.6,633.8,363.6Z"></path><path class="cls-2" d="M516.5,435.6l-3-7.8a26.4,26.4,0,0,0-28.8-16.9l-2.4.3a3.9,3.9,0,0,0-3.3,4.4,4.1,4.1,0,0,0,4.5,3.3l2.5-.5a19.1,19.1,0,0,1,18.9,8.9l-.8.3a14,14,0,0,0-8.3,7.7,14.6,14.6,0,0,0-.4,11.4,3.9,3.9,0,0,0,3.7,2.5h1.3a3.7,3.7,0,0,0,2.2-4.9v-.2a7.2,7.2,0,0,1,.2-5.4,6.4,6.4,0,0,1,4-3.7l1-.4,1.4,3.8a3.7,3.7,0,0,0,3.6,2.6l1.3-.3a3.6,3.6,0,0,0,2.5-4.6C516.6,435.9,516.5,435.8,516.5,435.6Z"></path><path class="cls-2" d="M634.1,486.4c-32.5-.7-35.6-15.7-35.7-16.4h-.2a34,34,0,0,1,8.9-1.6,4,4,0,0,0,3.7-4,4,4,0,0,0-4-3.7h0c-9.7.6-16.6,3.3-20.4,7.9a11.2,11.2,0,0,0-2.8,8.8,3.7,3.7,0,0,0,3.8,3.3h.5a3.5,3.5,0,0,0,3.2-4v-.3a5.1,5.1,0,0,1,.6-2c2.5,6.2,11.4,19.1,42.4,19.9h.1a4.1,4.1,0,0,0,3.9-3.9,4,4,0,0,0-3.7-4Z"></path><path class="cls-2" d="M638.8,396.7l-3-3.1a20.3,20.3,0,0,0-25.4-2.8l-8.5,5.4a3.7,3.7,0,0,0-1.2,5.1c0,.2.1.2.1.3a4,4,0,0,0,3.3,1.7,3.1,3.1,0,0,0,2-.6l8.4-5.4a8.2,8.2,0,0,1,2.8-1.4l.8,11.7a5.1,5.1,0,0,0,5.5,4.6h0a4.7,4.7,0,0,0,4.6-5.2h0l-.7-10.1a20.1,20.1,0,0,1,2.9,2.2l3.1,3.2a3.9,3.9,0,0,0,5.3,0,3.7,3.7,0,0,0,0-5.5Z"></path><path class="cls-2" d="M623.1,505.2c-7,1.9-17.4-4.1-20.6-6.6a4.1,4.1,0,0,0-5.5.8,3.8,3.8,0,0,0,.9,5.5c.5.3,11.5,8.3,22.3,8.3a15.4,15.4,0,0,0,4.8-.6,3.9,3.9,0,0,0,2.1-5.1,4.1,4.1,0,0,0-4-2.3Z"></path></g><g id="Table_and_Chair" data-name="Table and Chair"><rect class="cls-8" x="547.2" y="1000.9" width="858.7" height="61.73"></rect><path class="cls-9" d="M190.7,745.1h-14a21.9,21.9,0,0,0-22,22v295.6h65.9L196.4,750.5A5.6,5.6,0,0,0,190.7,745.1Z"></path><rect class="cls-9" x="547.2" y="1031.7" width="858.7" height="30.79"></rect></g><g id="Computer"><path class="cls-10" d="M1385.2,950,1237.1,719.7c14.8-35.4,31.9-80.7,50.2-138.1,61.7-191.7,70.5-322.5,70.5-322.5a8.3,8.3,0,0,0-5.4-10.2l-26.2-8.2a7.8,7.8,0,0,0-9.8,5.1c0,.2,0,.3-.2.3l-157,504.2h0L1138,818.5a7.8,7.8,0,0,0,5,9.9c.2,0,.3,0,.3.1l26.1,8.2a8.1,8.1,0,0,0,10.1-5.3s17.1-21.5,44.2-81.2l138.2,214.7a5.2,5.2,0,0,1,.2,5.6,4.9,4.9,0,0,1-4.8,2.7H1137.6a13.9,13.9,0,0,0,0,27.7h219.7a33.1,33.1,0,0,0,29.1-17.2A32.6,32.6,0,0,0,1385.2,950Z"></path><path class="cls-10" d="M812,1000.9s15.4-36,98-36,85.7,36,85.7,36Z"></path><path class="cls-6" d="M1076.8,658.7h-.4L899.6,642.2a5.4,5.4,0,1,1,1-10.7l176.7,16.4a5.4,5.4,0,0,1,4.9,5.9h0A5.3,5.3,0,0,1,1076.8,658.7Z"></path><path class="cls-9" d="M1126.3,568.2a6.9,6.9,0,0,1-2.4-.5c-1-.4-26.9-12.7-48.1-32.5-8.5-7.7-12.8-16-16.2-22.6-5.7-11.2-8.9-17.4-27.9-17.4h-7.4c-24.6.2-52.5.3-64.6-15.2-6-7.9-7.4-18.8-3.7-32.4,7.2-27.4,2.3-50.9-13.1-61.2s-34.6-6.5-55,8.4c-27.2,20.2-50.8,21.6-65.7,19.3a62,62,0,0,1-26.6-10.5,5.4,5.4,0,0,1,6.6-8.6v.2c1.3.9,33.4,24.9,79.3-9.1,24-17.7,49.3-21,67.5-8.7s25.8,40.5,17.2,73c-2.6,10.3-2,17.7,1.8,23,9,11.3,34.1,11.2,56.1,11h7.5c25.4,0,31.3,11.3,37.6,23.3,3.2,6.5,6.8,13.2,13.8,19.7,19.9,18.5,45.2,30.5,45.5,30.6a5.5,5.5,0,0,1,2.7,7,.1.1,0,0,1-.1.1A5.4,5.4,0,0,1,1126.3,568.2Z"></path><path class="cls-8" d="M1213.1,259.1a6,6,0,0,1-3.9-1.7l-107.9-111a5.4,5.4,0,0,1,.2-7.6,5.3,5.3,0,0,1,7.4,0v.2l107.9,110.8a5.7,5.7,0,0,1,0,7.7A6.2,6.2,0,0,1,1213.1,259.1Z"></path><path class="cls-11" d="M1176.1,459.7a5.7,5.7,0,0,1-3.7-1.4c-.3-.3-32.3-30.7-74.8-44.5-36-11.9-30.3-34-25.7-51.9s8-30.8-18-40.6c-23.3-8.7-36.8-18.8-41.6-31.1s1.4-27.1,7.4-39c1.6-3.1,3.1-6.1,4.3-9.1,5.9-13.5,9.9-47.4-6.7-68.5-13.4-16.8-37.6-22-71.6-15.5a5.4,5.4,0,0,1-2-10.7c38.3-7.2,65.9-.6,81.9,19.6,20.8,26,14.4,65.4,8.4,79.4-1.4,3.3-3,6.5-4.7,9.7-5.4,10.8-10.7,20.8-7,30.2s15.4,17.4,35.4,24.9c35.1,13.1,29.3,35.5,24.7,53.5s-7.9,30.1,18.6,38.8c45,14.7,77.4,45.7,78.8,46.9a5.4,5.4,0,0,1,.2,7.6A6,6,0,0,1,1176.1,459.7Z"></path><path class="cls-8" d="M995.7,931a6.2,6.2,0,0,1-2.3-.4,5.3,5.3,0,0,1-2.5-7.2h0l38.2-79a5.6,5.6,0,0,1,7.2-2.5,5.3,5.3,0,0,1,2.5,7.2h0l-38.2,79A5.3,5.3,0,0,1,995.7,931Z"></path><path class="cls-5" d="M1326.2,240.7,1169.8,748.3a5.2,5.2,0,0,1-6.3,3.4l-4.3-1.2,157-504.2a7.9,7.9,0,0,1,10-5.6Z"></path><path class="cls-9" d="M966.3,916.1a5.2,5.2,0,0,1-5.4-5.1V848.7a5.5,5.5,0,0,1,5.4-5.4h0a5.5,5.5,0,0,1,5.4,5.4h0v62A5.4,5.4,0,0,1,966.3,916.1Z"></path></g><g id="Student-2" data-name="Student"><path class="cls-11" d="M2435.1,689.8a145.5,145.5,0,0,1,38.7-75.5c27.2-27.9,86.7-77.6,112.5-70,14.5,4.4,5.8,25.9,16.9,36.2,44.3,41,87.9,103.2,87.9,174.6v307.6H2372.7l2.8-29S2416.5,793.4,2435.1,689.8Z"></path></g><g id="Table_and_Chair-2" data-name="Table and Chair"><rect class="cls-6" x="1477.2" y="1000.9" width="858.7" height="61.73"></rect><path class="cls-12" d="M2686.8,750.5l-24.2,312.2h65.9V767.1a21.9,21.9,0,0,0-22-22h-14A5.6,5.6,0,0,0,2686.8,750.5Z"></path><rect class="cls-7" x="1477.2" y="1031.7" width="858.7" height="30.79"></rect></g><path class="cls-10" d="M1496.8,983.7a33.1,33.1,0,0,0,29.1,17.2h219.6a13.9,13.9,0,1,0,0-27.7H1525.9a4.9,4.9,0,0,1-4.8-2.7,5.4,5.4,0,0,1,.1-5.6l138.3-214.7c27.1,59.7,44.2,81.2,44.2,81.2a8.1,8.1,0,0,0,10.1,5.3l26.1-8.2c0-.1.1-.1.3-.1a7.8,7.8,0,0,0,5-9.9L1724,750.3h0L1567,246.1c-.2,0-.2-.1-.2-.3a7.8,7.8,0,0,0-9.8-5.1l-26.2,8.2a8.3,8.3,0,0,0-5.4,10.2s8.8,130.8,70.5,322.5c18.3,57.4,35.4,102.7,50.2,138.1L1498,950A32.6,32.6,0,0,0,1496.8,983.7Z"></path><path class="cls-5" d="M1557,240.7a7.9,7.9,0,0,1,10,5.6l157,504.2-4.3,1.2a5.1,5.1,0,0,1-6.3-3.4L1557,240.7Z"></path><path class="cls-5" d="M2300.3,373.3c13.6.7,24.2,4.9,24,9.4s-10.7,4.2-24.2,3.5-24.9-1.6-24.6-6.1S2286.8,372.6,2300.3,373.3Z"></path><path class="cls-1" d="M2280,423.8a4,4,0,0,0,0,5.9,4.2,4.2,0,0,0,5.7,0l3.3-3.4a11.4,11.4,0,0,1,3.1-2.3l-.8,10.6v.2a5.1,5.1,0,0,0,4.9,5.5h0a5.5,5.5,0,0,0,5.9-4.9l.8-12.4a7.3,7.3,0,0,1,2.9,1.5l9,5.7a3.2,3.2,0,0,0,2.1.6,4.1,4.1,0,0,0,3.5-1.8c0-.1.1-.1.1-.3a3.9,3.9,0,0,0-1.3-5.4l-9-5.7a21.5,21.5,0,0,0-27,2.9l-3.2,3.3Z"></path><path class="cls-1" d="M2307.7,556.8a4.1,4.1,0,0,0-1.9,7.9,17.1,17.1,0,0,0,5,.6c11.5,0,23.3-8.5,23.8-8.8a4.3,4.3,0,0,0,1-5.9,4.4,4.4,0,0,0-5.9-.8c-3.5,2.6-14.4,9-22,7Z"></path><path class="cls-12" d="M1607.8,231a4.8,4.8,0,0,1-4.1-2.1,5,5,0,0,1,1.2-7l25.6-18.1a5.1,5.1,0,0,1,7,1.3,4.9,4.9,0,0,1-1.2,6.9l-25.7,18.1A4.7,4.7,0,0,1,1607.8,231Z"></path><path class="cls-12" d="M1645.3,290.5a3.9,3.9,0,0,1-1.5-.2l-33.3-10.6a5,5,0,0,1-3.2-6.3,4.9,4.9,0,0,1,6.2-3.3l33.3,10.7a4.9,4.9,0,0,1,3.2,6.3A4.8,4.8,0,0,1,1645.3,290.5Z"></path><path class="cls-12" d="M1682.4,251.3h-44.9a5,5,0,0,1-5-5,5,5,0,0,1,5-5h44.9a5.1,5.1,0,0,1,5,5A5,5,0,0,1,1682.4,251.3Z"></path><path class="cls-7" d="M1568.1,249.9a7.3,7.3,0,0,1,9.1,4.9,7.2,7.2,0,0,1-4.8,9"></path><path class="cls-10" d="M2067.6,1000.9H1876.1a6.8,6.8,0,0,1-6.8-6.8V980.5a6.9,6.9,0,0,1,7.3-6.8l191.4,13a6.8,6.8,0,0,1,6.4,6.7v.7A6.8,6.8,0,0,1,2067.6,1000.9Z"></path><path class="cls-5" d="M2544.8,452.7a8.2,8.2,0,0,0-1.6,7.7c1.4,4.6,3.1,12.2,2.1,19.9s-8.7,13.7-14.2,17.1a8.2,8.2,0,0,0-3.8,8.7.4.4,0,0,0,.1.3c1.3,6.6-1.1,12.1-8.7,12.8l-7.3.9a31.5,31.5,0,0,0-4.2.9c-7.7,2.4-41.3,10.2-65.2-25.8-2.2-3.3.1-7,3.9-7.8s8.7-4.9,9.5-5.5c9.4-7.2,16.6-30.1,16.8-50.3.2-18-14-33.2-31.9-33.5a32.5,32.5,0,0,0-32.9,32.4,75.4,75.4,0,0,0,1.4,11,10.3,10.3,0,0,1-17.1,9.1,10.1,10.1,0,0,1-3.2-6.6l-12.1-40.7c-4.5-10.7-24.4-18.4-27.6-22.4-5.7-7,.8-18.3-9.9-23.8-17-8.6-22.7-10.6-34-10.6a81.3,81.3,0,0,0-15.5,1.4c-8.8,1.6-24.6,2.8-29.1-7.1s-.8-23.7,11.6-33.9a9.2,9.2,0,0,0,2.9-4.8c1.3-6.7,6.2-23.2,22-32.1,14.2-7.9,26.4-8.7,32.6-8.4a8.1,8.1,0,0,0,6.9-3.3,42,42,0,0,1,30.7-16.4c17.2-1.3,27.3,2.1,32.2,4.6a8.5,8.5,0,0,0,7.3,0c5.7-2.8,16.7-7.2,27.5-5.5s18.5,9.3,22.1,14a8.3,8.3,0,0,0,7.5,3.2c7.7-.7,22.8-1,30.8,7.1s10,16.7,10.8,22a8.1,8.1,0,0,0,4.5,6.1c6.5,3.2,18.9,10.4,23.9,19.5s5.1,18.7,4.9,24a8.6,8.6,0,0,0,2.7,6.6c4.5,4.1,12.7,12.7,14.4,21.5s-2.8,20.4-5.4,25.9a8.2,8.2,0,0,0-.2,6.7c2.6,6.2,7.5,19.6,6,31.4S2548.6,448.2,2544.8,452.7Z"></path><path class="cls-13" d="M2421.7,447.4s-.1-41.4,25.7-28.2"></path><path class="cls-13" d="M2426.1,438.1s26.2,7,10.7,23.9"></path><path class="cls-1" d="M2345.8,503.2c-4.1-4.9-11.5-7.7-21.8-8.3-2.1,0-4.3,1.8-4.3,3.9a4.3,4.3,0,0,0,4,4.2,39.6,39.6,0,0,1,9.5,1.7h-.2c-.2.8-3.4,16.7-38,17.5h-.3a4,4,0,0,0-3.9,4.2,4.3,4.3,0,0,0,4.1,4.1h.1l4.9-.2c1.7,5.7,6,17,14.1,17s23.1-9.9,19.8-29a24,24,0,0,0,6.2-8.9,4.1,4.1,0,0,1,.7,2.2v.3a3.7,3.7,0,0,0,3.4,4.2h.5a4,4,0,0,0,4.1-3.6A12.5,12.5,0,0,0,2345.8,503.2Z"></path><path class="cls-1" d="M2443.3,619.4c-6.5-8.9-13.7-16.3-18.1-19.4s-6.8-4.5-9.9-6.3a39.9,39.9,0,0,0-20.3-5.2l-43,.5s58-5.3,88-18.1a12.8,12.8,0,0,1,5.1-.9C2464.6,571.3,2443.3,619.4,2443.3,619.4Z"></path><path class="cls-11" d="M2512.6,579.4l-95.2,71.8a12.1,12.1,0,0,0-2.2,17.2l26.5,32.8Z"></path><path class="cls-2" d="M2434.6,803.1l-51.1,67.7C2314.1,831,2205,759.2,2205,759.2l-1.7-3.4a28.3,28.3,0,0,0-23.1-15.6s-134-12-143.7-3-1.9,25.5-1.9,25.5l-125.2-20.5a16.4,16.4,0,0,0-17.2,8,16.2,16.2,0,0,0,8.4,22.8l128.5,38.6a31.5,31.5,0,0,0,14.3,2l93.4-1.6a48.4,48.4,0,0,1,39.9,13.2L2360,1003.7a50.2,50.2,0,0,0,53.1,11.1,68.3,68.3,0,0,0,25.6-17.4l108.1-117.7Z"></path><path class="cls-12" d="M2499.6,645.1l81.4-62.6a3.9,3.9,0,0,1,5.9,1.6l5.2,12.8a3.7,3.7,0,0,1-1.6,4.8l-86.6,49.8C2499.8,653.9,2495.8,648,2499.6,645.1Z"></path><path class="cls-2" d="M2196.1,953.1l95.6-15.9,9.8,17.5a15.5,15.5,0,0,1-9.9,22.7c-16.1,3.9-40.1,3.1-49.4,2.9-21.3-.3-32.1,6.9-47.5,14.2-4.9,2.4-24.1,5.8-27.6,6.4-11.3,2.1-84.2-6.9-101.1-10.8-8.4-1.9-8.8-7.3-7-12.3a17.2,17.2,0,0,1,13.1-10.9c8.7-1.6,42.3-1.2,52.9-1.9s44.2,6.7,62.8,11.2Z"></path><polygon class="cls-1" points="2434.6 803.1 2526.4 902 2546.8 879.7 2434.6 803.1"></polygon><path class="cls-1" d="M2034.6,762.7l46.1,1.2c3.8.1,4,5.8.2,6.2l-41.3,4.7a9.1,9.1,0,0,1-4.3-.5l-29.5-10.1a3.1,3.1,0,0,1,1.5-6Z"></path><path class="cls-12" d="M2498.7,801l77.9,40.2a8.4,8.4,0,0,0,11-3.1h0a8.4,8.4,0,0,0-4.5-12.2l-82.8-28.6A2,2,0,0,0,2498.7,801Z"></path><path class="cls-12" d="M2566,892.4c-5.4-1.4-4.2-9.4,1.4-9.3,7.5.2,16.9-.6,21.4-4.9,8.2-8,1.9-23.8,10.4-29.8,10.6-7.5,20.1-22.8,12.8-41.2-5.5-13.8-4-22.2-2.2-27.5,1.2-3.7,6-23.9,5.5-41.8-.1-3.8,5.4-4.6,6.3-.9,2,8.3,4.5,28.3,1.3,46.7a24.8,24.8,0,0,0,0,9c2.9,15.8,4.9,35.7,2.1,47.3s-13.4,12-14.3,21.7-3.1,31.1-30.2,32C2574.2,893.9,2569.5,893.4,2566,892.4Z"></path><path class="cls-6" d="M2222.9,583l-.4.2-56.3,35.9a5.4,5.4,0,1,1-4.9-9.6l56.4-35.9a5.3,5.3,0,0,1,7.2,2.4h.1A5.3,5.3,0,0,1,2222.9,583Z"></path><path class="cls-8" d="M2199.9,515.7a5.2,5.2,0,0,1-4.2-.3L2091,467a5.3,5.3,0,0,1-2.5-7.2,5.4,5.4,0,0,1,6.9-2.6h.2l104.7,48.4a5.7,5.7,0,0,1,2.7,7.2A6.5,6.5,0,0,1,2199.9,515.7Z"></path><path class="cls-7" d="M2194,554.4a5.6,5.6,0,0,1-3.8,1.7l-115.3,7a5.4,5.4,0,0,1-5.5-5.1,5.3,5.3,0,0,1,4.9-5.6h.2l115.1-7a5.7,5.7,0,0,1,5.8,5A6.9,6.9,0,0,1,2194,554.4Z"></path></svg> 