<?xml version="1.0" encoding="UTF-8"?> <svg xmlns="http://www.w3.org/2000/svg" id="Layer_4" data-name="Layer 4" viewBox="0 0 2880 1200"><defs><style>.cls-1{fill:#fff;}.cls-2{fill:#f0f0f0;}.cls-3{fill:#ffc010;}.cls-4{fill:#cacaca;}.cls-5{fill:#e4e4e4;}.cls-6{fill:#f56e5d;}.cls-7{fill:#f5a220;}.cls-8{fill:#05afa5;}.cls-9{fill:#ee7c95;}.cls-10{fill:#65b6ed;}.cls-11{fill:#f5ae95;}.cls-12{fill:#f58973;}.cls-13{fill:#201649;}</style></defs><g id="Pages"><path class="cls-1" d="M2627.5,169.2V837a25.4,25.4,0,0,1-25.4,25.4H212.9A25.6,25.6,0,0,1,187.4,837V169.2a25.6,25.6,0,0,1,25.5-25.4H2602.1a25.4,25.4,0,0,1,25.4,25.4Z"></path><path class="cls-2" d="M2602.1,865.9H212.9A28.9,28.9,0,0,1,184,837h0V169.2a28.9,28.9,0,0,1,28.9-28.9H2602.1a29.1,29.1,0,0,1,28.9,28.9V837A29.1,29.1,0,0,1,2602.1,865.9ZM212.9,147.3c-12.1,0-22,10.4-22,22.5V837a22,22,0,0,0,22,21.9H2602.1A21.9,21.9,0,0,0,2624,837h0V169.2a21.9,21.9,0,0,0-21.9-21.9H212.9Z"></path><path class="cls-2" d="M239.8,307.2h202a14.3,14.3,0,0,1,14.3,14.3V819a14.3,14.3,0,0,1-14.3,14.3h-202A14.3,14.3,0,0,1,225.5,819V321.5A14.3,14.3,0,0,1,239.8,307.2Z"></path><path class="cls-2" d="M475.6,307.2h202a14.3,14.3,0,0,1,14.3,14.3V677.9a14.3,14.3,0,0,1-14.3,14.3h-202a14.3,14.3,0,0,1-14.3-14.3V321.5A14.3,14.3,0,0,1,475.6,307.2Z"></path><path class="cls-2" d="M711.4,307.2h202a14.3,14.3,0,0,1,14.3,14.3V655.9a14.3,14.3,0,0,1-14.3,14.3h-202a14.3,14.3,0,0,1-14.3-14.3V321.5A14.3,14.3,0,0,1,711.4,307.2Z"></path><path class="cls-2" d="M947.1,307.2h202c7.9,0,14.3,5.6,14.3,12.6V760.4c0,7-6.4,12.6-14.3,12.6h-202c-7.9,0-14.3-5.6-14.3-12.6V319.8C932.8,312.8,939.2,307.2,947.1,307.2Z"></path><path class="cls-3" d="M478.1,342.8H673.6a5.6,5.6,0,0,1,5.6,5.6v45.5a5.6,5.6,0,0,1-5.6,5.6H478.1a5.6,5.6,0,0,1-5.6-5.6V348.4A5.6,5.6,0,0,1,478.1,342.8Z"></path><path class="cls-4" d="M921.7,459V611.5a5.8,5.8,0,0,1-5.7,5.7H720.6a5.7,5.7,0,0,1-5.6-5.7V475.1s0-40.5-10.8-58.6a101.2,101.2,0,0,0-3.3-12.3c-1.9-5.3-4.3-10-7.3-13l-1-.9-3.1-3.2H873.8a24.5,24.5,0,0,1,11.8,3.1,65.9,65.9,0,0,1,11.4,8.2,61.5,61.5,0,0,1,6.2,6.3,67.5,67.5,0,0,1,9.6,14.1C918,429,921.7,442.2,921.7,459Z"></path><path class="cls-5" d="M2624,170.5v31.2H190.9V170.5c0-14.7,10.5-24.3,24.5-24.3H2600.7C2614.7,146.2,2624,157.1,2624,170.5Z"></path><circle class="cls-6" cx="220.8" cy="172.4" r="13.8"></circle><circle class="cls-7" cx="268.7" cy="172.4" r="13.8"></circle><circle class="cls-8" cx="316.6" cy="172.4" r="13.8"></circle><rect class="cls-9" x="190.9" y="201.7" width="2433.1" height="91"></rect><path class="cls-10" d="M242.6,342.8H438.1a5.6,5.6,0,0,1,5.6,5.6V564a5.6,5.6,0,0,1-5.6,5.6H242.6A5.6,5.6,0,0,1,237,564V348.4A5.6,5.6,0,0,1,242.6,342.8Z"></path><path class="cls-9" d="M478.1,412.2H673.6a5.6,5.6,0,0,1,5.6,5.6v45.5a5.6,5.6,0,0,1-5.6,5.6H478.1a5.6,5.6,0,0,1-5.6-5.6V417.8A5.6,5.6,0,0,1,478.1,412.2Z"></path><path class="cls-3" d="M242.6,584.8H438.1a5.6,5.6,0,0,1,5.6,5.6v45.5a5.6,5.6,0,0,1-5.6,5.6H242.6a5.6,5.6,0,0,1-5.6-5.6V590.4A5.6,5.6,0,0,1,242.6,584.8Z"></path><path class="cls-6" d="M242.6,730.4H438.1a5.6,5.6,0,0,1,5.6,5.6v45.5a5.6,5.6,0,0,1-5.6,5.6H242.6a5.6,5.6,0,0,1-5.6-5.6V736A5.6,5.6,0,0,1,242.6,730.4Z"></path><path class="cls-8" d="M242.6,656.7H438.1a5.6,5.6,0,0,1,5.6,5.6v45.5a5.6,5.6,0,0,1-5.6,5.6H242.6a5.6,5.6,0,0,1-5.6-5.6V662.3A5.6,5.6,0,0,1,242.6,656.7Z"></path><path class="cls-10" d="M948.9,342.8h195.5a5.6,5.6,0,0,1,5.6,5.6V476a5.6,5.6,0,0,1-5.6,5.6H948.9a5.6,5.6,0,0,1-5.6-5.6V348.4A5.6,5.6,0,0,1,948.9,342.8Z"></path><path class="cls-1" d="M258.3,388.3H422.4a3.8,3.8,0,0,1,3.7,3.7v71a3.8,3.8,0,0,1-3.7,3.7H258.3a3.8,3.8,0,0,1-3.7-3.7V392A3.8,3.8,0,0,1,258.3,388.3Z"></path><path class="cls-1" d="M964.7,388.3h164.1a3.8,3.8,0,0,1,3.7,3.7v71a3.8,3.8,0,0,1-3.7,3.7H964.7A3.8,3.8,0,0,1,961,463V392A3.8,3.8,0,0,1,964.7,388.3Z"></path><path class="cls-3" d="M478.1,481.6H673.6a5.6,5.6,0,0,1,5.6,5.6V614.8a5.6,5.6,0,0,1-5.6,5.6H478.1a5.6,5.6,0,0,1-5.6-5.6V487.2A5.6,5.6,0,0,1,478.1,481.6Z"></path><path class="cls-1" d="M493.8,527.1H657.9a3.8,3.8,0,0,1,3.7,3.7v71a3.8,3.8,0,0,1-3.7,3.7H493.8a3.8,3.8,0,0,1-3.7-3.7v-71A3.8,3.8,0,0,1,493.8,527.1Z"></path><path class="cls-1" d="M258.3,478.8H422.4a3.8,3.8,0,0,1,3.7,3.7v71a3.8,3.8,0,0,1-3.7,3.7H258.3a3.8,3.8,0,0,1-3.7-3.7v-71A3.8,3.8,0,0,1,258.3,478.8Z"></path><path class="cls-3" d="M948.9,499.8h195.5a5.6,5.6,0,0,1,5.6,5.6V721a5.6,5.6,0,0,1-5.6,5.6H948.9a5.6,5.6,0,0,1-5.6-5.6V505.4A5.6,5.6,0,0,1,948.9,499.8Z"></path><path class="cls-1" d="M964.7,545.3h164.1a3.8,3.8,0,0,1,3.7,3.7v71a3.8,3.8,0,0,1-3.7,3.7H964.7A3.8,3.8,0,0,1,961,620V549A3.8,3.8,0,0,1,964.7,545.3Z"></path><path class="cls-1" d="M964.7,635.7h164.1a3.8,3.8,0,0,1,3.7,3.7v71a3.8,3.8,0,0,1-3.7,3.7H964.7a3.8,3.8,0,0,1-3.7-3.7v-71A3.8,3.8,0,0,1,964.7,635.7Z"></path><path class="cls-5" d="M240.3,320.1H296a3.3,3.3,0,0,1,3.3,3.3v6.3A3.3,3.3,0,0,1,296,333H240.3a3.3,3.3,0,0,1-3.3-3.3v-6.3A3.3,3.3,0,0,1,240.3,320.1Z"></path><path class="cls-5" d="M475.8,320.1h55.7a3.3,3.3,0,0,1,3.3,3.3v6.3a3.3,3.3,0,0,1-3.3,3.3H475.8a3.3,3.3,0,0,1-3.3-3.3v-6.3A3.3,3.3,0,0,1,475.8,320.1Z"></path><path class="cls-5" d="M711.2,320.1h55.7a3.3,3.3,0,0,1,3.3,3.3v6.3a3.3,3.3,0,0,1-3.3,3.3H711.2a3.3,3.3,0,0,1-3.3-3.3v-6.3A3.3,3.3,0,0,1,711.2,320.1Z"></path><path class="cls-5" d="M946.6,320.1h55.7a3.3,3.3,0,0,1,3.3,3.3v6.3a3.3,3.3,0,0,1-3.3,3.3H946.6a3.3,3.3,0,0,1-3.3-3.3v-6.3A3.3,3.3,0,0,1,946.6,320.1Z"></path><path class="cls-2" d="M1183.4,307.2h202c7.9,0,14.3,5.6,14.3,12.6v344c0,7-6.4,12.7-14.3,12.7h-202c-7.9,0-14.3-5.7-14.3-12.7v-344C1169.1,312.8,1175.5,307.2,1183.4,307.2Z"></path><path class="cls-10" d="M1185.2,342.8h195.5a5.6,5.6,0,0,1,5.6,5.6V476a5.6,5.6,0,0,1-5.6,5.6H1185.2a5.6,5.6,0,0,1-5.6-5.6V348.4A5.6,5.6,0,0,1,1185.2,342.8Z"></path><path class="cls-1" d="M1201,388.3h164.1a3.8,3.8,0,0,1,3.7,3.7v71a3.8,3.8,0,0,1-3.7,3.7H1201a3.8,3.8,0,0,1-3.7-3.7V392A3.8,3.8,0,0,1,1201,388.3Z"></path><path class="cls-5" d="M1182.9,320.1h55.7a3.3,3.3,0,0,1,3.3,3.3v6.3a3.3,3.3,0,0,1-3.3,3.3h-55.7a3.3,3.3,0,0,1-3.3-3.3v-6.3A3.3,3.3,0,0,1,1182.9,320.1Z"></path><path class="cls-2" d="M1419.8,307.2h202a14.3,14.3,0,0,1,14.3,14.3V755.3a14.3,14.3,0,0,1-14.3,14.3h-202a14.3,14.3,0,0,1-14.3-14.3V321.5A14.3,14.3,0,0,1,1419.8,307.2Z"></path><path class="cls-8" d="M1421.6,582.7h195.5a5.6,5.6,0,0,1,5.6,5.6v45.5a5.6,5.6,0,0,1-5.6,5.6H1421.6a5.6,5.6,0,0,1-5.6-5.6V588.3A5.6,5.6,0,0,1,1421.6,582.7Z"></path><path class="cls-8" d="M1421.6,650.8h195.5a5.6,5.6,0,0,1,5.6,5.6v45.5a5.6,5.6,0,0,1-5.6,5.6H1421.6a5.6,5.6,0,0,1-5.6-5.6V656.4A5.6,5.6,0,0,1,1421.6,650.8Z"></path><path class="cls-6" d="M1421.6,343.7h195.5a5.6,5.6,0,0,1,5.6,5.6V564.9a5.6,5.6,0,0,1-5.6,5.6H1421.6a5.6,5.6,0,0,1-5.6-5.6V349.3A5.6,5.6,0,0,1,1421.6,343.7Z"></path><path class="cls-1" d="M1437.4,389.2h164.1a3.8,3.8,0,0,1,3.7,3.7v71a3.8,3.8,0,0,1-3.7,3.7H1437.4a3.8,3.8,0,0,1-3.7-3.7v-71A3.8,3.8,0,0,1,1437.4,389.2Z"></path><path class="cls-1" d="M1437.4,479.6h164.1a3.8,3.8,0,0,1,3.7,3.7v71a3.8,3.8,0,0,1-3.7,3.7H1437.4a3.8,3.8,0,0,1-3.7-3.7v-71A3.8,3.8,0,0,1,1437.4,479.6Z"></path><path class="cls-5" d="M1419.3,320.1H1475a3.3,3.3,0,0,1,3.3,3.3v6.3a3.3,3.3,0,0,1-3.3,3.3h-55.7a3.3,3.3,0,0,1-3.3-3.3v-6.3A3.3,3.3,0,0,1,1419.3,320.1Z"></path><path class="cls-2" d="M1656.1,307.2h202a14.3,14.3,0,0,1,14.3,14.3V819a14.3,14.3,0,0,1-14.3,14.3h-202a14.3,14.3,0,0,1-14.3-14.3V321.5A14.3,14.3,0,0,1,1656.1,307.2Z"></path><path class="cls-3" d="M1659.3,412.2h195.5a5.6,5.6,0,0,1,5.6,5.6v45.5a5.6,5.6,0,0,1-5.6,5.6H1659.3a5.6,5.6,0,0,1-5.6-5.6V417.8A5.6,5.6,0,0,1,1659.3,412.2Z"></path><path class="cls-10" d="M1659.3,633h195.5a5.6,5.6,0,0,1,5.6,5.6v45.5a5.6,5.6,0,0,1-5.6,5.6H1659.3a5.6,5.6,0,0,1-5.6-5.6V638.6A5.6,5.6,0,0,1,1659.3,633Z"></path><path class="cls-6" d="M1659.3,702.4h195.5a5.6,5.6,0,0,1,5.6,5.6v45.5a5.6,5.6,0,0,1-5.6,5.6H1659.3a5.6,5.6,0,0,1-5.6-5.6V708A5.6,5.6,0,0,1,1659.3,702.4Z"></path><path class="cls-6" d="M1659.3,481.6h195.5a5.6,5.6,0,0,1,5.6,5.6V614.8a5.6,5.6,0,0,1-5.6,5.6H1659.3a5.6,5.6,0,0,1-5.6-5.6V487.2A5.6,5.6,0,0,1,1659.3,481.6Z"></path><path class="cls-1" d="M1675,527.1h164.1a3.8,3.8,0,0,1,3.7,3.7v71a3.8,3.8,0,0,1-3.7,3.7H1675a3.8,3.8,0,0,1-3.7-3.7v-71A3.8,3.8,0,0,1,1675,527.1Z"></path><path class="cls-5" d="M1655.6,320.1h55.7a3.3,3.3,0,0,1,3.3,3.3v6.3a3.3,3.3,0,0,1-3.3,3.3h-55.7a3.3,3.3,0,0,1-3.3-3.3v-6.3A3.3,3.3,0,0,1,1655.6,320.1Z"></path><path class="cls-2" d="M1892.4,307.2h202a14.3,14.3,0,0,1,14.3,14.3V819a14.3,14.3,0,0,1-14.3,14.3h-202a14.3,14.3,0,0,1-14.3-14.3V321.5A14.3,14.3,0,0,1,1892.4,307.2Z"></path><path class="cls-5" d="M1891.9,320.1h55.7a3.3,3.3,0,0,1,3.3,3.3v6.3a3.3,3.3,0,0,1-3.3,3.3h-55.7a3.3,3.3,0,0,1-3.3-3.3v-6.3A3.3,3.3,0,0,1,1891.9,320.1Z"></path><path class="cls-2" d="M2128.7,307.2h202a14.3,14.3,0,0,1,14.3,14.3V667.7a14.3,14.3,0,0,1-14.3,14.3h-202a14.3,14.3,0,0,1-14.3-14.3V321.5A14.3,14.3,0,0,1,2128.7,307.2Z"></path><path class="cls-5" d="M2128.2,320.1h55.7a3.3,3.3,0,0,1,3.3,3.3v6.3a3.3,3.3,0,0,1-3.3,3.3h-55.7a3.3,3.3,0,0,1-3.3-3.3v-6.3A3.3,3.3,0,0,1,2128.2,320.1Z"></path><path class="cls-2" d="M2365.1,307.2h202a14.3,14.3,0,0,1,14.3,14.3V667.7a14.3,14.3,0,0,1-14.3,14.3h-202a14.3,14.3,0,0,1-14.3-14.3V321.5A14.3,14.3,0,0,1,2365.1,307.2Z"></path><path class="cls-5" d="M2364.6,320.1h55.7a3.3,3.3,0,0,1,3.3,3.3v6.3a3.3,3.3,0,0,1-3.3,3.3h-55.7a3.3,3.3,0,0,1-3.3-3.3v-6.3A3.3,3.3,0,0,1,2364.6,320.1Z"></path><path class="cls-1" d="M283.7,217.1H232.4a5.6,5.6,0,0,0-5.6,5.6h0v49.8a5.6,5.6,0,0,0,5.6,5.6h51.3a5.6,5.6,0,0,0,5.6-5.6h0V222.7a5.6,5.6,0,0,0-5.6-5.6Zm-29.1,48.2a3.8,3.8,0,0,1-3.7,3.7H238.7a3.8,3.8,0,0,1-3.8-3.6h0V227.6a3.8,3.8,0,0,1,3.8-3.8h12.1a3.8,3.8,0,0,1,3.8,3.8h0Zm26.6-14.8a2.7,2.7,0,0,1-2.7,2.7H264.2a2.7,2.7,0,0,1-2.7-2.7v-24a2.7,2.7,0,0,1,2.7-2.7h14.3a2.7,2.7,0,0,1,2.7,2.7Z"></path><path class="cls-3" d="M1185.2,499.8h195.5a5.6,5.6,0,0,1,5.6,5.6v45.5a5.6,5.6,0,0,1-5.6,5.6H1185.2a5.6,5.6,0,0,1-5.6-5.6V505.4A5.6,5.6,0,0,1,1185.2,499.8Z"></path><path class="cls-9" d="M1185.2,569.2h195.5a5.6,5.6,0,0,1,5.6,5.6v45.5a5.6,5.6,0,0,1-5.6,5.6H1185.2a5.6,5.6,0,0,1-5.6-5.6V574.8A5.6,5.6,0,0,1,1185.2,569.2Z"></path><path class="cls-3" d="M2368.3,342.8h195.5a5.6,5.6,0,0,1,5.6,5.6V476a5.6,5.6,0,0,1-5.6,5.6H2368.3a5.6,5.6,0,0,1-5.6-5.6V348.4A5.6,5.6,0,0,1,2368.3,342.8Z"></path><path class="cls-1" d="M2384.1,388.3h164.1a3.8,3.8,0,0,1,3.7,3.7v71a3.8,3.8,0,0,1-3.7,3.7H2384.1a3.8,3.8,0,0,1-3.7-3.7V392A3.8,3.8,0,0,1,2384.1,388.3Z"></path><path class="cls-8" d="M2368.3,495.8h195.5a5.6,5.6,0,0,1,5.6,5.6v45.5a5.6,5.6,0,0,1-5.6,5.6H2368.3a5.6,5.6,0,0,1-5.6-5.6V501.4A5.6,5.6,0,0,1,2368.3,495.8Z"></path><path class="cls-6" d="M2368.3,565.2h195.5a5.6,5.6,0,0,1,5.6,5.6v45.5a5.6,5.6,0,0,1-5.6,5.6H2368.3a5.6,5.6,0,0,1-5.6-5.6V570.8A5.6,5.6,0,0,1,2368.3,565.2Z"></path><path class="cls-3" d="M1895.7,342.8h195.5a5.6,5.6,0,0,1,5.6,5.6v45.5a5.6,5.6,0,0,1-5.6,5.6H1895.7a5.6,5.6,0,0,1-5.6-5.6V348.4A5.6,5.6,0,0,1,1895.7,342.8Z"></path><path class="cls-10" d="M2132.1,342.8h195.5a5.6,5.6,0,0,1,5.6,5.6v45.5a5.6,5.6,0,0,1-5.6,5.6H2132.1a5.6,5.6,0,0,1-5.6-5.6V348.4A5.6,5.6,0,0,1,2132.1,342.8Z"></path><path class="cls-9" d="M1895.7,412.2h195.5a5.6,5.6,0,0,1,5.6,5.6v45.5a5.6,5.6,0,0,1-5.6,5.6H1895.7a5.6,5.6,0,0,1-5.6-5.6V417.8A5.6,5.6,0,0,1,1895.7,412.2Z"></path><path class="cls-9" d="M1895.7,481.6h195.5a5.6,5.6,0,0,1,5.6,5.6V614.8a5.6,5.6,0,0,1-5.6,5.6H1895.7a5.6,5.6,0,0,1-5.6-5.6V487.2A5.6,5.6,0,0,1,1895.7,481.6Z"></path><path class="cls-1" d="M1911.4,527.1h164.1a3.8,3.8,0,0,1,3.7,3.7v71a3.8,3.8,0,0,1-3.7,3.7H1911.4a3.8,3.8,0,0,1-3.7-3.7v-71A3.8,3.8,0,0,1,1911.4,527.1Z"></path><path class="cls-10" d="M1895.7,633h195.5a5.6,5.6,0,0,1,5.6,5.6V766.2a5.6,5.6,0,0,1-5.6,5.6H1895.7a5.6,5.6,0,0,1-5.6-5.6V638.6A5.6,5.6,0,0,1,1895.7,633Z"></path><path class="cls-1" d="M1911.4,678.5h164.1a3.8,3.8,0,0,1,3.7,3.7v71a3.8,3.8,0,0,1-3.7,3.7H1911.4a3.8,3.8,0,0,1-3.7-3.7v-71A3.8,3.8,0,0,1,1911.4,678.5Z"></path><path class="cls-6" d="M2132,413.7h195.5a5.6,5.6,0,0,1,5.6,5.6V634.9a5.6,5.6,0,0,1-5.6,5.6H2132a5.6,5.6,0,0,1-5.6-5.6V419.3A5.6,5.6,0,0,1,2132,413.7Z"></path><path class="cls-1" d="M2147.8,459.2h164.1a3.8,3.8,0,0,1,3.7,3.7v71a3.8,3.8,0,0,1-3.7,3.7H2147.8a3.8,3.8,0,0,1-3.7-3.7v-71A3.8,3.8,0,0,1,2147.8,459.2Z"></path><path class="cls-1" d="M2147.8,549.6h164.1a3.8,3.8,0,0,1,3.7,3.7v71a3.8,3.8,0,0,1-3.7,3.7H2147.8a3.8,3.8,0,0,1-3.7-3.7v-71A3.8,3.8,0,0,1,2147.8,549.6Z"></path></g><g id="Person"><path class="cls-9" d="M914.6,438.5V591a5.6,5.6,0,0,1-5.6,5.6H713.5a5.6,5.6,0,0,1-5.6-5.6V454.6s0-20-3.7-38.1a101.2,101.2,0,0,0-3.3-12.3c-1.9-5.3-4.3-10-7.3-13l-1-.9-3.1-3.2c-5-4.8-9.1-8.5-12.7-11.5a5,5,0,0,1,3.2-9H866.7a23.4,23.4,0,0,1,11.8,3.1,67.8,67.8,0,0,1,17.6,14.4,65.9,65.9,0,0,1,10.4,15.7,84.8,84.8,0,0,1,6.3,19A108.6,108.6,0,0,1,914.6,438.5Z"></path><path class="cls-1" d="M886.3,410.2a8.2,8.2,0,0,0-6-1.9H723.8a3,3,0,0,0-3.2,2.8,2.5,2.5,0,0,0,.2,1.2c3.7,11.9,4.7,40.5,4.7,40.5V571.6a3.8,3.8,0,0,0,3.7,3.7H893.3a3.6,3.6,0,0,0,3.7-3.5V454.6C897,417.4,887.3,411,886.3,410.2Z"></path><path class="cls-11" d="M721.1,609.6l-12.9,8.5-13.3,8.8a142.5,142.5,0,0,1-6.6-30.3,107.9,107.9,0,0,1-.3-25.4c3.1-27.7,9.1-60.8,9.1-60.8l15.5-15.9s2.5,5.1,2.2,9.8-2.2,21.3-2.2,26.8S712.5,581.7,721.1,609.6Z"></path><path class="cls-12" d="M708.2,618.1l-13.3,8.8a142.5,142.5,0,0,1-6.6-30.3S693.3,612.7,708.2,618.1Z"></path><path class="cls-11" d="M768,547.1c-17.6,0-31.8,14.6-31.9,37.4,0,6.3-.1,21.6,6.5,29.7s8.7,11.2,8.7,11.2v3.3l11.6,1.2-2.5-9.1a27.9,27.9,0,0,0,7.6,1.1c17.6,0,31.9-16.8,31.9-37.4S785.6,547.1,768,547.1Z"></path><path class="cls-12" d="M750.2,590c3.5,6.3-5.5,18.3-5.5,18.3h0a1.5,1.5,0,0,0-.4,1.8c.5,1.4,2.6,3,4.1,3.7,4.4,2.2,11.1-.5,11.1-.5l-1-1.4c1.5-.6,3.2-1.5,5.1-2.5C773.5,604,750.2,590,750.2,590Z"></path><path class="cls-13" d="M864.6,1103.3v.4c0,.6-.1,1.2-.1,1.8v.8H808.1v-.8c0-4-.3-5.5.2-7.9,1.1-6,9.1-11.2,12.6-13l1.7-5.1,38.9,1.5,1.7,5.5a88.4,88.4,0,0,1,1.3,11.4C864.6,1099.7,864.6,1101.5,864.6,1103.3Z"></path><path class="cls-13" d="M779.6,1110.1h0v3.5h-63V1107l-.3-1.5h0c-.1-.5-.1-1-.2-1.6-.9-6.3-1.9-20.2,4.5-25.7,8.4-7.1,33.7-2.3,33.7-2.3s8.8,10.5,17.7,15.5c4.9,2.8,6.7,8.2,7.3,12.5.1.5.1,1.1.2,1.6h0A35.3,35.3,0,0,1,779.6,1110.1Z"></path><path class="cls-3" d="M733.9,789s-9.7,39.5-11.1,73.2-1,72.7-2.8,83.8-2.2,42.5-3.2,58.7c-.6,9.2-2.6,42.3-2.8,67.8a40.9,40.9,0,0,0,2.4,14.3,4.5,4.5,0,0,0,1.9,2.4c4.2,2.8,18.1,10.3,36.9,2.2a15.2,15.2,0,0,0,7.5-7.5c2.2-5.5,1.9-13,.2-20.8-.6-3.1,1-9.5,1.5-15.2,3-31.4,13.5-87.4,14.6-96.4.8-6.5,3-35.4,4.6-57a2.4,2.4,0,0,1,2.9-2,2.5,2.5,0,0,1,2,1.9c3.3,24,8,58.2,9.7,64.4,2.7,9.8,19.1,96.8,20.4,108.2s-.9,16.9,0,18.2,14.2,3.8,28,1.5A128.4,128.4,0,0,1,863,1085a3.6,3.6,0,0,0,3.4-3.8h0c-1.6-17.4-8.5-88.2-15.4-110.3-8-25.3-5.4-71.4-4-94s1.8-69.2-9.3-94.9Z"></path><path class="cls-11" d="M930.2,507.6c-.5,1.6-2.7,7.1-6.9,9.6l-2.3,1.3c-3.6,2.1-5.5,5.9-6.8,9.9-4.3,12.9-9.5,36.1-22.3,65.5h0a234.3,234.3,0,0,1-26.4,46.5c-1.6,2.2-3.3,4.3-5,6.4l-15.3-35.2s17.9-22,22.6-36.6c2.3-7.3,9.2-23.4,15.4-37.7s11.9-26.8,11.9-26.8a71.1,71.1,0,0,0,0-11.3c-.8-7.1,4.6-11.7,3.6-17.6s1.1-10.6,6.6-8,3.1,14.3,3.1,14.3l19.4,16.3,1.5-1.5A4.6,4.6,0,0,1,930.2,507.6Z"></path><path class="cls-12" d="M891.9,593.9a234.3,234.3,0,0,1-26.4,46.5l-3.6-18.6S883.8,608.9,891.9,593.9Z"></path><path class="cls-5" d="M690.3,635.7s7.3-24.8,30.8-26.1l13.7,17.7s5.3,4.4,6.7,8.9,6.2,1.8,11.9,2.2,36.8,2.2,43.5-4,5.3-7.1,13.7-6.2,5.3-6.6,11.5-7.5,20.4-15.6,20.4-15.6,18.2-8.8,24.4,19.1-21.7,64.5-21.7,64.5-1.5,51.5-1.1,64.8-3.7,20.9.3,28.4,12.8,28.8,8.4,33.6,10.8,4.7-28.4,22.2c-41.7,18.6-95.8,2-101.1-2.2s-3.1-13.5-2.7-24.2c.3-6.1,4.2-12.9,4.5-20.9,1-24.5,2.2-52.9,2.2-57.1,0-7.6-5.1-33.4-5.1-33.4s-8.7-16.3-19.3-38S690.3,635.7,690.3,635.7Z"></path><path class="cls-13" d="M813.9,581.6a39.1,39.1,0,0,1-6.6,21.8s-1.2,1.8-1.9,2.6c-5.4,7.2-15.1,24.8-17.4,24.9-4.2.1-27.6,0-27.6,0l-8.7-15.8a10.8,10.8,0,0,1-.7-9.1c.1-.3.3-.5.3-.6,2.9-3.1,3.6-9.3,1.1-13.3s-9.7-4.8-12,3.6c-1.3-4.4-1.6-15-.9-18.8,4.1-21.2,13.9-34.3,35.4-34.3a39.1,39.1,0,0,1,39,39Z"></path><path class="cls-5" d="M747.4,638.7l1.8-11.1a2.6,2.6,0,0,1,2.5-2.1c7.2.3,30.1,1,34.5-.1s6.7-2,8.6-2.6a2.2,2.2,0,0,1,2.5.8l5.1,7.3s2.2,18.5-55,7.8"></path><path class="cls-11" d="M704,497.3s9.3-14.7,8.9-22.5,10.3-.8,7.4,8.2,0,24.2-3.7,30.1c-10.9,17.4-19.5-2.8-19.5-2.8Z"></path><path class="cls-11" d="M929.3,505.5l-20.9-17.6,6.6-7.3a1.9,1.9,0,0,0-.1-2.7l-.3-.2v-7c3.3,0,7.9,1.7,10.7,2.8a4.1,4.1,0,0,1,2.6,3.6v.7a3.5,3.5,0,0,1-.8,2.6l-.2.8a3,3,0,0,0,.4,2.6,8,8,0,0,1,1.3,5.2l-.6,2.2a8.9,8.9,0,0,0,1.1,4.8,8.6,8.6,0,0,1,.8,5Z"></path><path class="cls-11" d="M697.1,510.4s.5-22.5,0-27.2c-.9-9.2,10.8-18.8,10.8-18.8v46Z"></path><path class="cls-12" d="M707.9,468.9s-6.1,12.3-5.4,15.6,5.4,5.8,5.4,5.8Z"></path><path class="cls-12" d="M914.6,472.8V481s3-4.8,3.4-6.2S914.6,472.8,914.6,472.8Z"></path><path class="cls-6" d="M779.6,1110.1h0a33.8,33.8,0,0,0-.1-4.5H716.3l.3,1.5v3h-.2a1.4,1.4,0,0,0-1.4,1.4h0v2a1.4,1.4,0,0,0,1.4,1.4h63a1.4,1.4,0,0,0,1.4-1.4h0v-2A1.4,1.4,0,0,0,779.6,1110.1Z"></path><path class="cls-4" d="M731.8,805.7a3.5,3.5,0,0,1-.4-7h0c.9-.1,83.2-10.6,98.9-53.3a3.5,3.5,0,0,1,4.5-2,3.3,3.3,0,0,1,2.1,4.3h0c-7.3,19.8-27.2,35.6-59.2,46.9a234.7,234.7,0,0,1-45.4,10.9Z"></path><path class="cls-4" d="M770.2,644.1a59.7,59.7,0,0,1-17.8-2.4,3.3,3.3,0,0,1-2.4-4c0-.1.1-.2.1-.3a3.4,3.4,0,0,1,4.2-2.4h.2c.2,0,21.2,6.3,40.8-3.8a3.5,3.5,0,1,1,3.7,5.9l-.5.3A61.9,61.9,0,0,1,770.2,644.1Z"></path><path class="cls-4" d="M752.8,818.5a66.3,66.3,0,0,1-8.9-.4,3.4,3.4,0,0,1-3.2-3.6v-.2a3.5,3.5,0,0,1,3.8-3.1c.6,0,59.9,5,90.5-31.5a3.6,3.6,0,0,1,4.9-1,3.5,3.5,0,0,1,1,4.9l-.5.6c-13.6,16.3-34.7,27.4-60.8,31.9A150.9,150.9,0,0,1,752.8,818.5Z"></path><path class="cls-4" d="M837.7,666.5a3.5,3.5,0,0,1-3.5-3.1c-2.3-20.1-15.1-24.3-15.3-24.3a3.7,3.7,0,0,1-2.3-4.4,3.7,3.7,0,0,1,4.4-2.3c.7.2,17.4,5.6,20.1,30.2a3.4,3.4,0,0,1-2.8,3.9h-.6Z"></path><path class="cls-4" d="M851.7,641.9a3.4,3.4,0,0,1-3.4-2.8c-2.5-11.6-14.3-16.2-14.4-16.2a3.5,3.5,0,1,1,2.4-6.6c.6.3,15.5,5.9,18.9,21.4a3.4,3.4,0,0,1-2.7,4.1Z"></path><path class="cls-4" d="M786.7,730.4c-42.8,0-57.2-23-57.8-24a3.5,3.5,0,0,1,1.1-4.8,3.4,3.4,0,0,1,4.7,1c0,.1.1.1.1.2s15.5,24,61.8,20.2a3.5,3.5,0,0,1,.6,7C793.5,730.3,790,730.4,786.7,730.4Z"></path><path class="cls-6" d="M864.2,1097.8c-2.4-2-4.2-2.2-10-2s-12.9,2.6-16.1,6.4-6,3.2-8.4,3.3l-21.6.5c0,1.4.1,2.8.1,4.1h-.4a1.2,1.2,0,0,0-1.2,1.2v2.4a1.2,1.2,0,0,0,1.2,1.2h40.9a23.1,23.1,0,0,0,11.9-3.7,15.9,15.9,0,0,0,3.2-2.6,8.6,8.6,0,0,0,1-1.6v-.4h.1C866.4,1102.6,865.7,1099,864.2,1097.8Z"></path></g></svg> 